<?xml version="1.0" encoding="UTF-8"?>
<svg width="400" height="300" viewBox="0 0 400 300" fill="none" xmlns="http://www.w3.org/2000/svg">
  <!-- Background Elements -->
  <rect width="400" height="300" fill="#F0E6F5"/>
  
  <!-- Digital Background Pattern -->
  <g opacity="0.1">
    <circle cx="100" cy="100" r="2" fill="#915DAC"/>
    <circle cx="150" cy="150" r="2" fill="#915DAC"/>
    <circle cx="200" cy="200" r="2" fill="#915DAC"/>
    <circle cx="250" cy="250" r="2" fill="#915DAC"/>
    <circle cx="300" cy="100" r="2" fill="#915DAC"/>
    <circle cx="350" cy="150" r="2" fill="#915DAC"/>
  </g>
  
  <!-- Main Illustration -->
  <g transform="translate(100, 50)">
    <!-- Device Frame -->
    <rect x="0" y="0" width="200" height="200" rx="20" fill="white" stroke="#915DAC" stroke-width="3"/>
    
    <!-- Screen Content -->
    <g transform="translate(30, 30)">
      <!-- Profile Cards -->
      <rect x="0" y="0" width="140" height="40" rx="10" fill="#F0E6F5"/>
      <rect x="0" y="50" width="140" height="40" rx="10" fill="#F0E6F5"/>
      <rect x="0" y="100" width="140" height="40" rx="10" fill="#F0E6F5"/>
      
      <!-- Profile Icons -->
      <circle cx="20" cy="20" r="15" fill="#915DAC"/>
      <circle cx="20" cy="70" r="15" fill="#915DAC"/>
      <circle cx="20" cy="120" r="15" fill="#915DAC"/>
      
      <!-- Connection Lines -->
      <path d="M35 20 L125 20" stroke="#FF6B9B" stroke-width="2" stroke-dasharray="4 4"/>
      <path d="M35 70 L125 70" stroke="#FF6B9B" stroke-width="2" stroke-dasharray="4 4"/>
      <path d="M35 120 L125 120" stroke="#FF6B9B" stroke-width="2" stroke-dasharray="4 4"/>
      
      <!-- Add Friend Buttons -->
      <circle cx="130" cy="20" r="8" fill="#FF6B9B"/>
      <circle cx="130" cy="70" r="8" fill="#FF6B9B"/>
      <circle cx="130" cy="120" r="8" fill="#FF6B9B"/>
    </g>
    
    <!-- Wi-Fi Signal -->
    <g transform="translate(180, 10)">
      <path d="M0 0 L5 5 L10 0" stroke="#915DAC" stroke-width="2"/>
      <path d="M2 2 L5 5 L8 2" stroke="#915DAC" stroke-width="2"/>
      <path d="M4 4 L5 5 L6 4" stroke="#915DAC" stroke-width="2"/>
    </g>
  </g>
  
  <!-- Decorative Elements -->
  <g opacity="0.5">
    <circle cx="50" cy="50" r="4" fill="#FF6B9B"/>
    <circle cx="350" cy="250" r="6" fill="#FF6B9B"/>
    <circle cx="300" cy="50" r="5" fill="#915DAC"/>
    <circle cx="50" cy="250" r="3" fill="#915DAC"/>
  </g>
</svg> 